<svg xmlns="http://www.w3.org/2000/svg" viewBox="130 184 730 539" width="100%" height="100%">
    <defs>
        <style>
            .device { stroke: #8a8599; stroke-width: 2.5; fill: none; stroke-linecap: round; stroke-linejoin: round; }
            .device-fill { fill: #8a8599; }
            .device-bg { fill: #12121a; }
            .accent { stroke: #57DEE3; stroke-width: 2.5; fill: none; stroke-linecap: round; stroke-linejoin: round; }
            .accent-fill { fill: #57DEE3; }
            .accent-bg { fill: rgba(87, 222, 227, 0.05); }
            .cable { stroke: #5a5570; stroke-width: 2; fill: none; stroke-dasharray: 6 8; stroke-linecap: round; stroke-linejoin: round; }
            .wifi { stroke: #57DEE3; stroke-width: 2; stroke-linecap: round; stroke-linejoin: round; fill: none; }
            .glow { filter: drop-shadow(0 0 12px rgba(87, 222, 227, 0.4)); }
            .glow-strong { filter: drop-shadow(0 0 20px rgba(87, 222, 227, 0.8)); }
            .text { font-family: 'Outfit', -apple-system, sans-serif; fill: #f0eef5; font-size: 18px; text-anchor: middle; font-weight: 500; }
            .text-sm { font-family: 'Outfit', -apple-system, sans-serif; fill: #8a8599; font-size: 14px; text-anchor: middle; }
        </style>
    </defs>
    
    <!-- Wireless Connections to Audio Interface (Colored dashed lines) -->
    <path d="M 250.8 376.8 L 250.8 485 L 450 485 L 450 425" class="wifi" stroke-dasharray="4 8" opacity="0.6"/>
    <path d="M 813.5 385.5 L 813.5 485 L 510 485 L 510 425" class="wifi" stroke-dasharray="4 8" opacity="0.6"/>
    <path d="M 762 685.1 L 762 712 L 480 712 L 480 425" class="wifi" stroke-dasharray="4 8" opacity="0.6"/>

    <!-- Center: MacBook -->
    <g transform="translate(407.8, 271.5)">
        <rect x="25" y="0" width="90" height="60" rx="5" class="device device-bg"/>
        <path d="M 0 65 L 140 65 A 5 5 0 0 0 140 60 L 0 60 A 5 5 0 0 0 0 65 Z" class="device device-bg"/>
        <rect x="30" y="5" width="80" height="50" rx="2" class="device" stroke-width="1.5" opacity="0.5"/>
        <rect x="35" y="10" width="70" height="18" rx="1.5" fill="#57DEE3" opacity="0.2"/>
        <rect x="35" y="35" width="70" height="12" rx="1.5" fill="#57DEE3" opacity="0.1"/>
        <text x="70" y="95" class="text">MacBook</text>
        <g transform="translate(70, -20)" class="glow-strong">
            <path d="M -12 -12 A 18 18 0 0 1 12 -12" class="wifi"/>
            <path d="M -22 -22 A 30 30 0 0 1 22 -22" class="wifi"/>
            <circle cx="0" cy="-2" r="3" class="accent-fill"/>
        </g>
    </g>

    <!-- Center: Audio Interface -->
    <g transform="translate(430, 390)">
        <rect x="0" y="0" width="100" height="35" rx="4" class="device device-bg"/>
        <circle cx="20" cy="17.5" r="6" class="device"/>
        <circle cx="45" cy="17.5" r="5" class="device"/>
        <circle cx="65" cy="17.5" r="5" class="device"/>
        <circle cx="85" cy="17.5" r="5" class="device"/>
        <text x="50" y="65" class="text">Audio Interface</text>
    </g>

    <!-- Left: Vocals (Mic) -->
    <g transform="translate(217.1, 276.8)">
        <g transform="scale(0.8)">
            <path d="m45.419 50.517 2.04 -0.486a4.651 4.651 0 0 0 3.474 -3.567l1.356 -6.454 -19.354 6.8 0.464 3.462a2.743 2.743 0 0 0 3.355 2.3l0.982 -0.234" class="device"/>
            <path d="m27.874 35.228 -4.741 2.5a3.574 3.574 0 0 0 -1.606 4.591l1.89 4.326a3.574 3.574 0 0 0 4.46 1.942l5.058 -1.776Z" class="device device-bg"/>
            <path d="m32.935 46.813 19.354 -6.803 -6.272 -14.36 -18.143 9.578 5.061 11.585z" class="device device-bg"/>
            <path d="m46.017 25.65 6.272 14.36 5.955 -2.093 -6.645 -15.213 -5.582 2.946z" class="device device-bg"/>
            <path d="M83.043 18.026a13.376 13.376 0 1 1 -17.612 -6.9 13.377 13.377 0 0 1 17.612 6.9Z" class="device"/>
            <path d="M16.716 45.091a1.758 1.758 0 0 0 1.4 3.2l5.3 -1.647 -1.89 -4.326Z" class="device"/>
            <path d="M45.605 51.709a3.935 3.935 0 0 0 -7.869 0v7.869a1.574 1.574 0 0 0 1.574 1.574h4.721a1.574 1.574 0 0 0 1.574 -1.574Z" class="device"/>
            <path d="m40.097 90 0 -28.848 3.147 0 0 28.848" class="device"/>
            <path d="m39.733 44.423 1.249 3.413" class="device"/>
            <path d="M77.885 34.72 67.291 10.466a13.466 13.466 0 0 0 -1.86 0.656 13.317 13.317 0 0 0 -1.745 0.919L74.279 36.3a13.539 13.539 0 0 0 3.606 -1.575Z" class="device"/>
            <path d="M58.045 19.3a13.379 13.379 0 0 0 7.078 16.2l-6.879 2.417L51.6 22.7Z" class="device"/>
            <path d="M41.671 51.306a0.4 0.4 0 1 1 -0.4 0.4 0.4 0.4 0 0 1 0.4 -0.4m0 -1a1.4 1.4 0 1 0 1.4 1.4 1.4 1.4 0 0 0 -1.4 -1.4Z" class="device-fill" stroke="none"/>
        </g>
        <text x="33.7" y="100" class="text">Vocals</text>
    </g>

    <!-- Left: iPhone (Singer) -->
    <g transform="translate(153.9, 268.9)">
        <rect x="0" y="0" width="50" height="100" rx="8" class="accent accent-bg glow"/>
        <rect x="5" y="5" width="40" height="90" rx="4" class="accent" stroke-width="1.5" opacity="0.3"/>
        <!-- Window-like grid in top half -->
        <g opacity="0.6">
            <rect x="10" y="15" width="30" height="30" rx="2" class="accent" stroke-width="1" fill="none"/>
            <line x1="10" y1="30" x2="40" y2="30" class="accent" stroke-width="1"/>
            <line x1="25" y1="15" x2="25" y2="45" class="accent" stroke-width="1"/>
        </g>
        <!-- Waveform in bottom half -->
        <g class="glow" opacity="0.8">
            <line x1="14" y1="62" x2="14" y2="72" class="accent" stroke-width="2" stroke-linecap="round"/>
            <line x1="19.5" y1="58" x2="19.5" y2="76" class="accent" stroke-width="2" stroke-linecap="round"/>
            <line x1="25" y1="54" x2="25" y2="80" class="accent" stroke-width="2" stroke-linecap="round"/>
            <line x1="30.5" y1="58" x2="30.5" y2="76" class="accent" stroke-width="2" stroke-linecap="round"/>
            <line x1="36" y1="62" x2="36" y2="72" class="accent" stroke-width="2" stroke-linecap="round"/>
        </g>
        <g transform="translate(25, -12)" class="glow">
            <path d="M -8 -8 A 12 12 0 0 1 8 -8" class="wifi"/>
            <path d="M -14 -14 A 20 20 0 0 1 14 -14" class="wifi"/>
            <circle cx="0" cy="-2" r="2" class="accent-fill"/>
        </g>
    </g>

    <!-- Right Top: Keyboard -->
    <g transform="translate(761.9, 275.5)">
        <g transform="scale(0.8)">
            <rect x="5" y="25" width="90" height="50" rx="6" class="device device-bg"/>
            <rect x="10" y="45" width="80" height="25" rx="2" class="device" fill="none"/>
            <line x1="20" y1="45" x2="20" y2="70" class="device"/>
            <line x1="30" y1="45" x2="30" y2="70" class="device"/>
            <line x1="40" y1="45" x2="40" y2="70" class="device"/>
            <line x1="50" y1="45" x2="50" y2="70" class="device"/>
            <line x1="60" y1="45" x2="60" y2="70" class="device"/>
            <line x1="70" y1="45" x2="70" y2="70" class="device"/>
            <line x1="80" y1="45" x2="80" y2="70" class="device"/>
            <line x1="15" y1="45" x2="15" y2="60" class="device" stroke-width="4"/>
            <line x1="25" y1="45" x2="25" y2="60" class="device" stroke-width="4"/>
            <line x1="35" y1="45" x2="35" y2="60" class="device" stroke-width="4"/>
            <line x1="45" y1="45" x2="45" y2="60" class="device" stroke-width="4"/>
            <line x1="55" y1="45" x2="55" y2="60" class="device" stroke-width="4"/>
            <line x1="65" y1="45" x2="65" y2="60" class="device" stroke-width="4"/>
            <line x1="75" y1="45" x2="75" y2="60" class="device" stroke-width="4"/>
            <line x1="85" y1="45" x2="85" y2="60" class="device" stroke-width="4"/>
        </g>
        <text x="40" y="100" class="text">Keyboard</text>
    </g>

    <!-- Right Top: iPad (Keys) -->
    <g transform="translate(632, 288.4)">
        <g transform="scale(1)">
            <rect x="0" y="0" width="105" height="75" rx="8" class="accent accent-bg glow"/>
            <rect x="5" y="5" width="95" height="65" rx="4" class="accent" stroke-width="1.5" opacity="0.3"/>
            <!-- Active iPad Screen Area -->
            <rect x="15" y="12" width="75" height="50" rx="3" class="accent" stroke-width="1.5" opacity="0.5"/>
            
            <!-- Left/Right Screen Splitter -->
            <line x1="50" y1="12" x2="50" y2="62" class="accent" stroke-width="1" opacity="0.4"/>
            
            <!-- LEFT HALF: Three Panel Grid with Ball -->
            <line x1="32.5" y1="12" x2="32.5" y2="62" class="accent" stroke-width="1" opacity="0.4"/>
            <line x1="15" y1="37" x2="32.5" y2="37" class="accent" stroke-width="1" opacity="0.4"/>
            <!-- Glowing Ball inside the Right panel of Left Half (X: 32.5 to 50, Y: 12 to 62) -->
            <circle cx="41.25" cy="37" r="4.5" class="accent-fill glow-strong"/>

            <!-- TOP RIGHT: Faders above waveform -->
            <!-- Fader 1 -->
            <line x1="58" y1="16" x2="58" y2="32" class="accent" stroke-width="1.5" opacity="0.4"/>
            <circle cx="58" cy="24" r="2.5" class="accent-fill"/>
            <!-- Fader 2 -->
            <line x1="70" y1="16" x2="70" y2="32" class="accent" stroke-width="1.5" opacity="0.4"/>
            <circle cx="70" cy="20" r="2.5" class="accent-fill"/>
            <!-- Fader 3 -->
            <line x1="82" y1="16" x2="82" y2="32" class="accent" stroke-width="1.5" opacity="0.4"/>
            <circle cx="82" cy="28" r="2.5" class="accent-fill"/>

            <!-- BOTTOM RIGHT: Waveform -->
            <g class="glow" opacity="0.8">
                <line x1="56" y1="46" x2="56" y2="52" class="accent" stroke-width="2" stroke-linecap="round"/>
                <line x1="62" y1="42" x2="62" y2="56" class="accent" stroke-width="2" stroke-linecap="round"/>
                <line x1="68" y1="40" x2="68" y2="58" class="accent" stroke-width="2" stroke-linecap="round"/>
                <line x1="74" y1="44" x2="74" y2="54" class="accent" stroke-width="2" stroke-linecap="round"/>
                <line x1="80" y1="46" x2="80" y2="52" class="accent" stroke-width="2" stroke-linecap="round"/>
                <line x1="86" y1="48" x2="86" y2="50" class="accent" stroke-width="2" stroke-linecap="round"/>
            </g>

            <!-- WiFi on top of the tablet -->
            <g transform="translate(52, -15)" class="glow">
                <path d="M -10 -10 A 15 15 0 0 1 10 -10" class="wifi"/>
                <path d="M -18 -18 A 25 25 0 0 1 18 -18" class="wifi"/>
                <circle cx="0" cy="-2" r="2.5" class="accent-fill"/>
            </g>
        </g>
    </g>

    <!-- Right Bottom: Guitar -->
    <g transform="translate(715.9, 570.1)">
        <g transform="scale(0.8)">
            <path d="m87.128 17.782 3.146 3.146" class="device"/>
            <path d="m79.346 10 3.312 3.311" class="device"/>
            <path d="m83.817 22.418 3.477 3.477" class="device"/>
            <path d="m74.379 12.98 2.98 2.981" class="device"/>
            <path d="m29.674 63.646 5.96 5.961" class="device"/>
            <path d="M42.092 63.15a2.108 2.108 0 0 1 -2.981 0l-2.98 -2.981a2.107 2.107 0 0 1 2.98 -2.98l2.981 2.98a2.108 2.108 0 0 1 0 2.981Z" class="device"/>
            <path d="M47.059 58.182a2.107 2.107 0 0 1 -2.98 0L41.1 55.2a2.108 2.108 0 0 1 2.981 -2.98l2.98 2.98a2.107 2.107 0 0 1 -0.002 2.982Z" class="device"/>
            <path d="M48.574 44.947a5.62 5.62 0 0 0 -6.015 -0.146L10.7 61.719a2.81 2.81 0 0 0 0.932 5.212l16.771 2.8a1.406 1.406 0 0 1 1.155 1.155l2.8 16.771a2.81 2.81 0 0 0 5.212 0.931l16.91 -31.866a5.622 5.622 0 0 0 -0.146 -6.015" class="device device-bg"/>
            <path d="M34.641 64.64a2.811 2.811 0 0 1 0 3.974h0a2.81 2.81 0 0 0 -0.8 2.384l0.636 4.453a2.81 2.81 0 0 0 5.223 1.005l10.755 -20.878a2.811 2.811 0 0 0 -0.448 -3.389l-2.832 -2.832a2.81 2.81 0 0 0 -3.513 -0.372L31.6 56.791a2.811 2.811 0 0 0 -0.46 4.346Z" class="device"/>
            <path d="M38.785 74.465a0.163 0.163 0 1 1 -0.164 0.163 0.163 0.163 0 0 1 0.164 -0.163m0 -1a1.163 1.163 0 1 0 1.163 1.163 1.163 1.163 0 0 0 -1.163 -1.163Z" class="device-fill" stroke="none"/>
            <path d="M40.892 70.25a0.163 0.163 0 1 1 -0.163 0.163 0.164 0.164 0 0 1 0.163 -0.163m0 -1a1.163 1.163 0 1 0 1.164 1.163 1.163 1.163 0 0 0 -1.164 -1.163Z" class="device-fill" stroke="none"/>
            <path d="M52.522 52.666a1.406 1.406 0 0 1 -2.012 0.026l-3.921 -3.921a1.4 1.4 0 0 1 0.026 -2.013l25.777 -23.843 3.974 3.974Z" class="device device-bg"/>
            <path d="M90.385 13.222a1.792 1.792 0 0 0 -2.26 -2.644l-13.818 6.909a2.111 2.111 0 0 0 -1.124 1.471l-0.791 3.957 3.974 3.974 4.15 -0.83a2.11 2.11 0 0 0 1.3 -0.842Z" class="device"/>
        </g>
        <text x="40" y="100" class="text">Guitar</text>
    </g>

    <!-- Right Bottom: iPhone (Guitar) -->
    <g transform="translate(656.2, 568.8)">
        <rect x="0" y="0" width="50" height="100" rx="8" class="accent accent-bg glow"/>
        <rect x="5" y="5" width="40" height="90" rx="4" class="accent" stroke-width="1.5" opacity="0.3"/>
        <!-- Window-like grid in top half -->
        <g opacity="0.6">
            <rect x="10" y="15" width="30" height="30" rx="2" class="accent" stroke-width="1" fill="none"/>
            <line x1="10" y1="30" x2="40" y2="30" class="accent" stroke-width="1"/>
            <line x1="25" y1="15" x2="25" y2="45" class="accent" stroke-width="1"/>
        </g>
        <!-- Waveform in bottom half -->
        <g class="glow" opacity="0.8">
            <line x1="14" y1="62" x2="14" y2="72" class="accent" stroke-width="2" stroke-linecap="round"/>
            <line x1="19.5" y1="58" x2="19.5" y2="76" class="accent" stroke-width="2" stroke-linecap="round"/>
            <line x1="25" y1="54" x2="25" y2="80" class="accent" stroke-width="2" stroke-linecap="round"/>
            <line x1="30.5" y1="58" x2="30.5" y2="76" class="accent" stroke-width="2" stroke-linecap="round"/>
            <line x1="36" y1="62" x2="36" y2="72" class="accent" stroke-width="2" stroke-linecap="round"/>
        </g>
        <g transform="translate(25, -12)" class="glow">
            <path d="M -8 -8 A 12 12 0 0 1 8 -8" class="wifi"/>
            <path d="M -14 -14 A 20 20 0 0 1 14 -14" class="wifi"/>
            <circle cx="0" cy="-2" r="2" class="accent-fill"/>
        </g>
    </g>
</svg>